<svg width="175" height="30" viewBox="0 0 175 30" fill="none" xmlns="http://www.w3.org/2000/svg">
<rect width="175" height="30" fill="#E5E5E5"/>
<g clip-path="url(#clip0)">
<rect width="175" height="30" fill="white"/>
<path d="M19.6487 11C19.3321 10.4167 18.8737 9.975 18.2737 9.675C17.6904 9.35833 16.9987 9.2 16.1987 9.2C14.8154 9.2 13.7071 9.65833 12.8737 10.575C12.0404 11.475 11.6237 12.6833 11.6237 14.2C11.6237 15.8167 12.0571 17.0833 12.9237 18C13.8071 18.9 15.0154 19.35 16.5487 19.35C17.5987 19.35 18.4821 19.0833 19.1987 18.55C19.9321 18.0167 20.4654 17.25 20.7987 16.25H15.3737V13.1H24.6737V17.075C24.3571 18.1417 23.8154 19.1333 23.0487 20.05C22.2987 20.9667 21.3404 21.7083 20.1737 22.275C19.0071 22.8417 17.6904 23.125 16.2237 23.125C14.4904 23.125 12.9404 22.75 11.5737 22C10.2237 21.2333 9.1654 20.175 8.39873 18.825C7.64873 17.475 7.27373 15.9333 7.27373 14.2C7.27373 12.4667 7.64873 10.925 8.39873 9.575C9.1654 8.20833 10.2237 7.15 11.5737 6.4C12.9237 5.63333 14.4654 5.25 16.1987 5.25C18.2987 5.25 20.0654 5.75833 21.4987 6.775C22.9487 7.79167 23.9071 9.2 24.3737 11H19.6487ZM42.7917 9.05L34.0417 29.625H29.4417L32.6417 22.525L26.9667 9.05H31.7417L34.9667 17.775L38.1667 9.05H42.7917ZM63.6376 8.9C65.3709 8.9 66.7459 9.425 67.7626 10.475C68.7959 11.525 69.3126 12.9833 69.3126 14.85V23H65.0626V15.425C65.0626 14.525 64.8209 13.8333 64.3376 13.35C63.8709 12.85 63.2209 12.6 62.3876 12.6C61.5543 12.6 60.8959 12.85 60.4126 13.35C59.9459 13.8333 59.7126 14.525 59.7126 15.425V23H55.4626V15.425C55.4626 14.525 55.2209 13.8333 54.7376 13.35C54.2709 12.85 53.6209 12.6 52.7876 12.6C51.9543 12.6 51.2959 12.85 50.8126 13.35C50.3459 13.8333 50.1126 14.525 50.1126 15.425V23H45.8376V9.05H50.1126V10.8C50.5459 10.2167 51.1126 9.75833 51.8126 9.425C52.5126 9.075 53.3043 8.9 54.1876 8.9C55.2376 8.9 56.1709 9.125 56.9876 9.575C57.8209 10.025 58.4709 10.6667 58.9376 11.5C59.4209 10.7333 60.0793 10.1083 60.9126 9.625C61.7459 9.14167 62.6543 8.9 63.6376 8.9Z" fill="black"/>
<path d="M73.0774 14.2C73.0774 12.4667 73.4524 10.925 74.2024 9.575C74.9524 8.20833 75.9941 7.15 77.3274 6.4C78.6774 5.63333 80.2024 5.25 81.9024 5.25C83.9858 5.25 85.7691 5.8 87.2524 6.9C88.7358 8 89.7274 9.5 90.2274 11.4H85.5274C85.1774 10.6667 84.6774 10.1083 84.0274 9.725C83.3941 9.34167 82.6691 9.15 81.8524 9.15C80.5358 9.15 79.4691 9.60833 78.6524 10.525C77.8358 11.4417 77.4274 12.6667 77.4274 14.2C77.4274 15.7333 77.8358 16.9583 78.6524 17.875C79.4691 18.7917 80.5358 19.25 81.8524 19.25C82.6691 19.25 83.3941 19.0583 84.0274 18.675C84.6774 18.2917 85.1774 17.7333 85.5274 17H90.2274C89.7274 18.9 88.7358 20.4 87.2524 21.5C85.7691 22.5833 83.9858 23.125 81.9024 23.125C80.2024 23.125 78.6774 22.75 77.3274 22C75.9941 21.2333 74.9524 20.175 74.2024 18.825C73.4524 17.475 73.0774 15.9333 73.0774 14.2ZM102.92 8.9C104.52 8.9 105.804 9.43333 106.77 10.5C107.737 11.55 108.22 13 108.22 14.85V23H103.97V15.425C103.97 14.4917 103.729 13.7667 103.245 13.25C102.762 12.7333 102.112 12.475 101.295 12.475C100.479 12.475 99.8287 12.7333 99.3454 13.25C98.8621 13.7667 98.6204 14.4917 98.6204 15.425V23H94.3454V4.5H98.6204V10.925C99.0537 10.3083 99.6454 9.81667 100.395 9.45C101.145 9.08333 101.987 8.9 102.92 8.9ZM111.841 16C111.841 14.5667 112.108 13.3083 112.641 12.225C113.191 11.1417 113.933 10.3083 114.866 9.725C115.799 9.14167 116.841 8.85 117.991 8.85C118.974 8.85 119.833 9.05 120.566 9.45C121.316 9.85 121.891 10.375 122.291 11.025V9.05H126.566V23H122.291V21.025C121.874 21.675 121.291 22.2 120.541 22.6C119.808 23 118.949 23.2 117.966 23.2C116.833 23.2 115.799 22.9083 114.866 22.325C113.933 21.725 113.191 20.8833 112.641 19.8C112.108 18.7 111.841 17.4333 111.841 16ZM122.291 16.025C122.291 14.9583 121.991 14.1167 121.391 13.5C120.808 12.8833 120.091 12.575 119.241 12.575C118.391 12.575 117.666 12.8833 117.066 13.5C116.483 14.1 116.191 14.9333 116.191 16C116.191 17.0667 116.483 17.9167 117.066 18.55C117.666 19.1667 118.391 19.475 119.241 19.475C120.091 19.475 120.808 19.1667 121.391 18.55C121.991 17.9333 122.291 17.0917 122.291 16.025ZM139.659 8.9C141.292 8.9 142.592 9.43333 143.559 10.5C144.542 11.55 145.034 13 145.034 14.85V23H140.784V15.425C140.784 14.4917 140.542 13.7667 140.059 13.25C139.576 12.7333 138.926 12.475 138.109 12.475C137.292 12.475 136.642 12.7333 136.159 13.25C135.676 13.7667 135.434 14.4917 135.434 15.425V23H131.159V9.05H135.434V10.9C135.867 10.2833 136.451 9.8 137.184 9.45C137.917 9.08333 138.742 8.9 139.659 8.9ZM157.28 19.375V23H155.105C153.555 23 152.346 22.625 151.48 21.875C150.613 21.1083 150.18 19.8667 150.18 18.15V12.6H148.48V9.05H150.18V5.65H154.455V9.05H157.255V12.6H154.455V18.2C154.455 18.6167 154.555 18.9167 154.755 19.1C154.955 19.2833 155.288 19.375 155.755 19.375H157.28ZM166.836 23.2C165.619 23.2 164.536 22.9917 163.586 22.575C162.636 22.1583 161.886 21.5917 161.336 20.875C160.786 20.1417 160.478 19.325 160.411 18.425H164.636C164.686 18.9083 164.911 19.3 165.311 19.6C165.711 19.9 166.203 20.05 166.786 20.05C167.319 20.05 167.728 19.95 168.011 19.75C168.311 19.5333 168.461 19.2583 168.461 18.925C168.461 18.525 168.253 18.2333 167.836 18.05C167.419 17.85 166.744 17.6333 165.811 17.4C164.811 17.1667 163.978 16.925 163.311 16.675C162.644 16.4083 162.069 16 161.586 15.45C161.103 14.8833 160.861 14.125 160.861 13.175C160.861 12.375 161.078 11.65 161.511 11C161.961 10.3333 162.611 9.80833 163.461 9.425C164.328 9.04167 165.353 8.85 166.536 8.85C168.286 8.85 169.661 9.28333 170.661 10.15C171.678 11.0167 172.261 12.1667 172.411 13.6H168.461C168.394 13.1167 168.178 12.7333 167.811 12.45C167.461 12.1667 166.994 12.025 166.411 12.025C165.911 12.025 165.528 12.125 165.261 12.325C164.994 12.5083 164.861 12.7667 164.861 13.1C164.861 13.5 165.069 13.8 165.486 14C165.919 14.2 166.586 14.4 167.486 14.6C168.519 14.8667 169.361 15.1333 170.011 15.4C170.661 15.65 171.228 16.0667 171.711 16.65C172.211 17.2167 172.469 17.9833 172.486 18.95C172.486 19.7667 172.253 20.5 171.786 21.15C171.336 21.7833 170.678 22.2833 169.811 22.65C168.961 23.0167 167.969 23.2 166.836 23.2Z" fill="#2CAEBA"/>
</g>
<defs>
<clipPath id="clip0">
<rect width="175" height="30" fill="white"/>
</clipPath>
</defs>
</svg>
